<svg xmlns="http://www.w3.org/2000/svg" viewBox="0 0 64 64" width="64" height="64" role="img" aria-label="Dante">
  <circle cx="32" cy="32" r="32" fill="#1a1408"/>
  <path fill="#e8c66a" d="M18.5 22.5 L14 8.5 L24.5 16.5 L28.5 14.8 L32 13.8 L35.5 14.8 L39.5 16.5 L50 8.5 L45.5 22.5 C52 29.5 52 40 45 46.5 C41.5 49.8 36.8 52 32 52 C27.2 52 22.5 49.8 19 46.5 C12 40 12 29.5 18.5 22.5 Z"/>
  <circle cx="25.2" cy="34.5" r="2.2" fill="#1a1408"/>
  <circle cx="38.8" cy="34.5" r="2.2" fill="#1a1408"/>
  <path fill="#1a1408" d="M32 38.2 L29.6 41.4 H34.4 Z"/>
  <path d="M26 43.2 Q32 47.2 38 43.2" fill="none" stroke="#1a1408" stroke-width="1.7" stroke-linecap="round"/>
</svg>
